# xmcd
#
# Track frame offsets:
#	151
#	14611
#	39729
#	62048
#	92242
#	115360
#	134503
#	159931
#	180325
#	196975
#
# Disc length: 2959 seconds
#
# Revision: 0
# Processed by: cddbd v1.4PL0 Copyright (c) Steve Scherf et al.
# Submitted via: dBpowerAMP V4.0
#
DISCID=860b8d0a
DTITLE=Rocket Rached and The Fat City 8 - Live at Bluesfest
DYEAR=1997
DGENRE=Blues
TTITLE0=Rocket 88
TTITLE1=Up The Line
TTITLE2=Do'in Alright
TTITLE3=Stormy Monday
TTITLE4=Who's Been Talkin'
TTITLE5=Too Late
TTITLE6=Honey Hush
TTITLE7=Dead Presidents
TTITLE8=Big Fat Lie
TTITLE9=I Don't Know Why
EXTD=
EXTT0=
EXTT1=
EXTT2=
EXTT3=
EXTT4=
EXTT5=
EXTT6=
EXTT7=
EXTT8=
EXTT9=
PLAYORDER=
